1umbra-0.ufo
<glyph name="exclam" format="1">
  <advance width="291"/>
  <unicode hex="0021"/>
  <outline>
    <contour>
      <point x="236" y="469" type="line"/>
      <point x="206" y="749" type="line"/>
      <point x="366" y="749" type="line"/>
      <point x="336" y="469" type="line"/>
    </contour>
    <contour>
      <point x="286" y="221" type="line"/>
      <point x="181" y="326" type="line"/>
      <point x="286" y="432" type="line"/>
      <point x="392" y="326" type="line"/>
    </contour>
  </outline>
</glyph>
<glyph name="dollar" format="1">
  <advance width="449"/>
  <unicode hex="0024"/>
  <outline>
    <contour>
      <point x="420" y="399" type="curve" smooth="yes"/>
      <point x="420" y="459"/>
      <point x="187" y="462"/>
      <point x="187" y="612" type="curve" smooth="yes"/>
      <point x="187" y="691"/>
      <point x="243" y="742"/>
      <point x="321" y="758" type="curve"/>
      <point x="306" y="819" type="line"/>
      <point x="446" y="819" type="line"/>
      <point x="431" y="758" type="line"/>
      <point x="477" y="746"/>
      <point x="519" y="719"/>
      <point x="556" y="677" type="curve"/>
      <point x="516" y="567" type="line"/>
      <point x="476" y="605"/>
      <point x="428" y="644"/>
      <point x="380" y="644" type="curve" smooth="yes"/>
      <point x="352" y="644"/>
      <point x="342" y="630"/>
      <point x="342" y="612" type="curve" smooth="yes"/>
      <point x="342" y="552"/>
      <point x="565" y="545"/>
      <point x="565" y="401" type="curve" smooth="yes"/>
      <point x="565" y="296"/>
      <point x="500" y="251"/>
      <point x="417" y="238" type="curve"/>
      <point x="433" y="174" type="line"/>
      <point x="293" y="174" type="line"/>
      <point x="309" y="238" type="line"/>
      <point x="240" y="248"/>
      <point x="188" y="278"/>
      <point x="156" y="316" type="curve"/>
      <point x="196" y="431" type="line"/>
      <point x="236" y="393"/>
      <point x="305" y="359"/>
      <point x="353" y="359" type="curve" smooth="yes"/>
      <point x="391" y="359"/>
      <point x="420" y="368"/>
    </contour>
  </outline>
</glyph>
<glyph name="plus" format="1">
  <advance width="560"/>
  <unicode hex="002B"/>
  <outline>
    <contour>
      <point x="226" y="439" type="line"/>
      <point x="226" y="549" type="line"/>
      <point x="351" y="549" type="line"/>
      <point x="351" y="669" type="line"/>
      <point x="491" y="669" type="line"/>
      <point x="491" y="549" type="line"/>
      <point x="616" y="549" type="line"/>
      <point x="616" y="439" type="line"/>
      <point x="491" y="439" type="line"/>
      <point x="491" y="319" type="line"/>
      <point x="351" y="319" type="line"/>
      <point x="351" y="439" type="line"/>
    </contour>
  </outline>
</glyph>
<glyph name="three" format="1">
  <advance width="464"/>
  <unicode hex="0033"/>
  <outline>
    <contour>
      <point x="298" y="458" type="line"/>
      <point x="298" y="553" type="line"/>
      <point x="348" y="553" type="line" smooth="yes"/>
      <point x="396" y="553"/>
      <point x="405" y="578"/>
      <point x="405" y="606" type="curve" smooth="yes"/>
      <point x="405" y="629"/>
      <point x="391" y="644"/>
      <point x="363" y="644" type="curve" smooth="yes"/>
      <point x="315" y="644"/>
      <point x="267" y="605"/>
      <point x="227" y="567" type="curve"/>
      <point x="187" y="677" type="line"/>
      <point x="237" y="734"/>
      <point x="297" y="764"/>
      <point x="364" y="764" type="curve" smooth="yes"/>
      <point x="471" y="764"/>
      <point x="556" y="719"/>
      <point x="556" y="622" type="curve" smooth="yes"/>
      <point x="556" y="567"/>
      <point x="530" y="534"/>
      <point x="485" y="516" type="curve"/>
      <point x="539" y="496"/>
      <point x="570" y="457"/>
      <point x="570" y="401" type="curve" smooth="yes"/>
      <point x="570" y="274"/>
      <point x="445" y="234"/>
      <point x="368" y="234" type="curve" smooth="yes"/>
      <point x="271" y="234"/>
      <point x="201" y="269"/>
      <point x="161" y="316" type="curve"/>
      <point x="201" y="431" type="line"/>
      <point x="241" y="393"/>
      <point x="300" y="359"/>
      <point x="348" y="359" type="curve" smooth="yes"/>
      <point x="396" y="359"/>
      <point x="425" y="368"/>
      <point x="425" y="409" type="curve" smooth="yes"/>
      <point x="425" y="447"/>
      <point x="396" y="458"/>
      <point x="348" y="458" type="curve" smooth="yes"/>
    </contour>
  </outline>
</glyph>
<glyph name="six" format="1">
  <advance width="474"/>
  <unicode hex="0036"/>
  <outline>
    <contour>
      <point x="316" y="411" type="curve" smooth="yes"/>
      <point x="316" y="383"/>
      <point x="335" y="354"/>
      <point x="383" y="354" type="curve" smooth="yes"/>
      <point x="431" y="354"/>
      <point x="450" y="383"/>
      <point x="450" y="411" type="curve" smooth="yes"/>
      <point x="450" y="439"/>
      <point x="431" y="468"/>
      <point x="383" y="468" type="curve" smooth="yes"/>
      <point x="335" y="468"/>
      <point x="316" y="439"/>
    </contour>
    <contour>
      <point x="580" y="411" type="curve" smooth="yes"/>
      <point x="580" y="304"/>
      <point x="505" y="239"/>
      <point x="388" y="239" type="curve" smooth="yes"/>
      <point x="231" y="239"/>
      <point x="176" y="364"/>
      <point x="176" y="481" type="curve" smooth="yes"/>
      <point x="176" y="608"/>
      <point x="252" y="759"/>
      <point x="389" y="759" type="curve" smooth="yes"/>
      <point x="466" y="759"/>
      <point x="536" y="724"/>
      <point x="576" y="677" type="curve"/>
      <point x="535" y="571" type="line"/>
      <point x="495" y="609"/>
      <point x="458" y="639"/>
      <point x="410" y="639" type="curve" smooth="yes"/>
      <point x="342" y="639"/>
      <point x="313" y="580"/>
      <point x="307" y="512" type="curve"/>
      <point x="337" y="549"/>
      <point x="383" y="563"/>
      <point x="418" y="563" type="curve" smooth="yes"/>
      <point x="485" y="563"/>
      <point x="580" y="518"/>
    </contour>
  </outline>
</glyph>
<glyph name="eight" format="1">
  <advance width="464"/>
  <unicode hex="0038"/>
  <outline>
    <contour>
      <point x="301" y="401" type="curve" smooth="yes"/>
      <point x="301" y="373"/>
      <point x="325" y="354"/>
      <point x="373" y="354" type="curve" smooth="yes"/>
      <point x="421" y="354"/>
      <point x="445" y="373"/>
      <point x="445" y="401" type="curve" smooth="yes"/>
      <point x="445" y="429"/>
      <point x="421" y="449"/>
      <point x="373" y="449" type="curve" smooth="yes"/>
      <point x="325" y="449"/>
      <point x="301" y="429"/>
    </contour>
    <contour>
      <point x="321" y="603" type="curve" smooth="yes"/>
      <point x="321" y="575"/>
      <point x="345" y="564"/>
      <point x="373" y="564" type="curve" smooth="yes"/>
      <point x="401" y="564"/>
      <point x="425" y="575"/>
      <point x="425" y="603" type="curve" smooth="yes"/>
      <point x="425" y="631"/>
      <point x="401" y="644"/>
      <point x="373" y="644" type="curve" smooth="yes"/>
      <point x="345" y="644"/>
      <point x="321" y="631"/>
    </contour>
    <contour>
      <point x="191" y="613" type="curve" smooth="yes"/>
      <point x="191" y="690"/>
      <point x="256" y="759"/>
      <point x="373" y="759" type="curve" smooth="yes"/>
      <point x="490" y="759"/>
      <point x="555" y="690"/>
      <point x="555" y="613" type="curve" smooth="yes"/>
      <point x="555" y="566"/>
      <point x="530" y="530"/>
      <point x="484" y="509" type="curve"/>
      <point x="540" y="490"/>
      <point x="575" y="453"/>
      <point x="575" y="391" type="curve" smooth="yes"/>
      <point x="575" y="284"/>
      <point x="490" y="239"/>
      <point x="373" y="239" type="curve" smooth="yes"/>
      <point x="256" y="239"/>
      <point x="171" y="294"/>
      <point x="171" y="391" type="curve" smooth="yes"/>
      <point x="171" y="454"/>
      <point x="207" y="492"/>
      <point x="265" y="510" type="curve"/>
      <point x="217" y="533"/>
      <point x="191" y="571"/>
    </contour>
  </outline>
</glyph>
<glyph name="at" format="1">
  <advance width="700"/>
  <unicode hex="0040"/>
  <outline>
    <contour>
      <point x="821" y="469" type="curve" smooth="yes"/>
      <point x="821" y="339"/>
      <point x="774" y="237"/>
      <point x="647" y="237" type="curve" smooth="yes"/>
      <point x="600" y="237"/>
      <point x="555" y="248"/>
      <point x="540" y="294" type="curve"/>
      <point x="516" y="267"/>
      <point x="484" y="249"/>
      <point x="448" y="249" type="curve" smooth="yes"/>
      <point x="341" y="249"/>
      <point x="296" y="344"/>
      <point x="296" y="431" type="curve" smooth="yes"/>
      <point x="296" y="518"/>
      <point x="351" y="614"/>
      <point x="438" y="614" type="curve" smooth="yes"/>
      <point x="475" y="614"/>
      <point x="508" y="597"/>
      <point x="535" y="571" type="curve"/>
      <point x="535" y="604" type="line"/>
      <point x="670" y="604" type="line"/>
      <point x="670" y="359" type="line" smooth="yes"/>
      <point x="670" y="331"/>
      <point x="672" y="322"/>
      <point x="687" y="322" type="curve" smooth="yes"/>
      <point x="715" y="322"/>
      <point x="736" y="389"/>
      <point x="736" y="469" type="curve" smooth="yes"/>
      <point x="736" y="642"/>
      <point x="618" y="699"/>
      <point x="496" y="699" type="curve" smooth="yes"/>
      <point x="384" y="699"/>
      <point x="246" y="612"/>
      <point x="246" y="439" type="curve" smooth="yes"/>
      <point x="246" y="236"/>
      <point x="374" y="184"/>
      <point x="526" y="184" type="curve"/>
      <point x="526" y="119" type="line"/>
      <point x="301" y="119"/>
      <point x="161" y="220"/>
      <point x="161" y="439" type="curve" smooth="yes"/>
      <point x="161" y="628"/>
      <point x="311" y="769"/>
      <point x="496" y="769" type="curve" smooth="yes"/>
      <point x="691" y="769"/>
      <point x="821" y="638"/>
    </contour>
    <contour>
      <point x="535" y="378" type="curve"/>
      <point x="535" y="485" type="line"/>
      <point x="518" y="503"/>
      <point x="494" y="509"/>
      <point x="478" y="509" type="curve" smooth="yes"/>
      <point x="450" y="509"/>
      <point x="431" y="479"/>
      <point x="431" y="431" type="curve" smooth="yes"/>
      <point x="431" y="383"/>
      <point x="450" y="354"/>
      <point x="478" y="354" type="curve" smooth="yes"/>
      <point x="494" y="354"/>
      <point x="518" y="361"/>
    </contour>
  </outline>
</glyph>
<glyph name="E" format="1">
  <advance width="455"/>
  <unicode hex="0045"/>
  <outline>
    <contour>
      <point x="186" y="249" type="curve"/>
      <point x="186" y="749" type="line"/>
      <point x="313" y="749"/>
      <point x="439" y="749"/>
      <point x="566" y="749" type="curve"/>
      <point x="566" y="634" type="line"/>
      <point x="326" y="634" type="line"/>
      <point x="326" y="559" type="line"/>
      <point x="536" y="559" type="line"/>
      <point x="536" y="444" type="line"/>
      <point x="326" y="444" type="line"/>
      <point x="326" y="369" type="line"/>
      <point x="566" y="369" type="line"/>
      <point x="566" y="249" type="line"/>
      <point x="439" y="249"/>
      <point x="313" y="249"/>
    </contour>
  </outline>
</glyph>
<glyph name="F" format="1">
  <advance width="450"/>
  <unicode hex="0046"/>
  <outline>
    <contour>
      <point x="186" y="249" type="line"/>
      <point x="186" y="749" type="line"/>
      <point x="313" y="749"/>
      <point x="439" y="749"/>
      <point x="566" y="749" type="curve"/>
      <point x="566" y="629" type="line"/>
      <point x="326" y="629" type="line"/>
      <point x="326" y="539" type="line"/>
      <point x="536" y="539" type="line"/>
      <point x="536" y="414" type="line"/>
      <point x="326" y="414" type="line"/>
      <point x="326" y="249" type="line"/>
    </contour>
  </outline>
</glyph>
<glyph name="M" format="1">
  <advance width="690"/>
  <unicode hex="004D"/>
  <outline>
    <contour>
      <point x="186" y="249" type="line"/>
      <point x="186" y="749" type="line"/>
      <point x="326" y="749" type="line"/>
      <point x="486" y="479" type="line"/>
      <point x="646" y="749" type="line"/>
      <point x="786" y="749" type="line"/>
      <point x="786" y="249" type="line"/>
      <point x="646" y="249" type="line"/>
      <point x="646" y="509" type="line"/>
      <point x="486" y="239" type="line"/>
      <point x="326" y="509" type="line"/>
      <point x="326" y="249" type="line"/>
    </contour>
  </outline>
</glyph>
<glyph name="P" format="1">
  <advance width="487"/>
  <unicode hex="0050"/>
  <outline>
    <contour>
      <point x="186" y="249" type="line"/>
      <point x="186" y="749" type="line"/>
      <point x="259" y="749"/>
      <point x="333" y="749"/>
      <point x="406" y="749" type="curve" smooth="yes"/>
      <point x="523" y="749"/>
      <point x="608" y="674"/>
      <point x="608" y="567" type="curve" smooth="yes"/>
      <point x="608" y="450"/>
      <point x="523" y="384"/>
      <point x="406" y="384" type="curve" smooth="yes"/>
      <point x="326" y="384" type="line"/>
      <point x="326" y="249" type="line"/>
    </contour>
    <contour>
      <point x="396" y="634" type="curve" smooth="yes"/>
      <point x="326" y="634" type="line"/>
      <point x="326" y="499" type="line"/>
      <point x="396" y="499" type="line" smooth="yes"/>
      <point x="434" y="499"/>
      <point x="463" y="519"/>
      <point x="463" y="567" type="curve" smooth="yes"/>
      <point x="463" y="615"/>
      <point x="434" y="634"/>
    </contour>
  </outline>
</glyph>
<glyph name="X" format="1">
  <advance width="620"/>
  <unicode hex="0058"/>
  <outline>
    <contour>
      <point x="741" y="249" type="line"/>
      <point x="571" y="249" type="line"/>
      <point x="451" y="403" type="line"/>
      <point x="331" y="249" type="line"/>
      <point x="161" y="249" type="line"/>
      <point x="366" y="512" type="line"/>
      <point x="181" y="749" type="line"/>
      <point x="351" y="749" type="line"/>
      <point x="451" y="621" type="line"/>
      <point x="551" y="749" type="line"/>
      <point x="721" y="749" type="line"/>
      <point x="536" y="512" type="line"/>
    </contour>
  </outline>
</glyph>
<glyph name="Y" format="1">
  <advance width="540"/>
  <unicode hex="0059"/>
  <outline>
    <contour>
      <point x="481" y="429" type="line"/>
      <point x="481" y="249" type="line"/>
      <point x="341" y="249" type="line"/>
      <point x="341" y="429" type="line"/>
      <point x="151" y="749" type="line"/>
      <point x="311" y="749" type="line"/>
      <point x="411" y="549" type="line"/>
      <point x="511" y="749" type="line"/>
      <point x="671" y="749" type="line"/>
    </contour>
  </outline>
</glyph>
<glyph name="backslash" format="1">
  <advance width="460"/>
  <unicode hex="005C"/>
  <outline>
    <contour>
      <point x="591" y="249" type="line"/>
      <point x="461" y="249" type="line"/>
      <point x="151" y="749" type="line"/>
      <point x="281" y="749" type="line"/>
    </contour>
  </outline>
</glyph>
<glyph name="c" format="1">
  <advance width="404"/>
  <unicode hex="0063"/>
  <outline>
    <contour>
      <point x="176" y="441" type="curve" smooth="yes"/>
      <point x="176" y="568"/>
      <point x="271" y="644"/>
      <point x="388" y="644" type="curve" smooth="yes"/>
      <point x="426" y="644"/>
      <point x="474" y="633"/>
      <point x="500" y="609" type="curve"/>
      <point x="460" y="506" type="line"/>
      <point x="448" y="521"/>
      <point x="421" y="534"/>
      <point x="398" y="534" type="curve" smooth="yes"/>
      <point x="340" y="534"/>
      <point x="311" y="489"/>
      <point x="311" y="441" type="curve" smooth="yes"/>
      <point x="311" y="393"/>
      <point x="340" y="349"/>
      <point x="398" y="349" type="curve" smooth="yes"/>
      <point x="421" y="349"/>
      <point x="448" y="363"/>
      <point x="460" y="377" type="curve"/>
      <point x="500" y="274" type="line"/>
      <point x="474" y="250"/>
      <point x="426" y="239"/>
      <point x="388" y="239" type="curve" smooth="yes"/>
      <point x="271" y="239"/>
      <point x="176" y="324"/>
    </contour>
  </outline>
</glyph>
<glyph name="e" format="1">
  <advance width="469"/>
  <unicode hex="0065"/>
  <outline>
    <contour>
      <point x="181" y="441" type="curve" smooth="yes"/>
      <point x="181" y="568"/>
      <point x="266" y="644"/>
      <point x="383" y="644" type="curve" smooth="yes"/>
      <point x="500" y="644"/>
      <point x="575" y="568"/>
      <point x="575" y="461" type="curve"/>
      <point x="333" y="372" type="line"/>
      <point x="349" y="352"/>
      <point x="372" y="339"/>
      <point x="403" y="339" type="curve" smooth="yes"/>
      <point x="446" y="339"/>
      <point x="473" y="363"/>
      <point x="495" y="397" type="curve"/>
      <point x="555" y="304" type="line"/>
      <point x="519" y="260"/>
      <point x="461" y="239"/>
      <point x="393" y="239" type="curve" smooth="yes"/>
      <point x="276" y="239"/>
      <point x="181" y="314"/>
    </contour>
    <contour>
      <point x="459" y="515" type="line"/>
      <point x="444" y="535"/>
      <point x="420" y="548"/>
      <point x="386" y="548" type="curve" smooth="yes"/>
      <point x="331" y="548"/>
      <point x="309" y="502"/>
      <point x="306" y="457" type="curve"/>
    </contour>
  </outline>
</glyph>
<glyph name="f" format="1">
  <advance width="333"/>
  <unicode hex="0066"/>
  <outline>
    <contour>
      <point x="340" y="249" type="line"/>
      <point x="205" y="249" type="line"/>
      <point x="205" y="534" type="line"/>
      <point x="161" y="534" type="line"/>
      <point x="161" y="634" type="line"/>
      <point x="205" y="634" type="line"/>
      <point x="205" y="637" type="line" smooth="yes"/>
      <point x="205" y="734"/>
      <point x="290" y="789"/>
      <point x="367" y="789" type="curve" smooth="yes"/>
      <point x="434" y="789"/>
      <point x="464" y="774"/>
      <point x="514" y="727" type="curve"/>
      <point x="474" y="627" type="line"/>
      <point x="434" y="665"/>
      <point x="405" y="679"/>
      <point x="387" y="679" type="curve" smooth="yes"/>
      <point x="364" y="679"/>
      <point x="347" y="670"/>
      <point x="342" y="634" type="curve"/>
      <point x="426" y="634" type="line"/>
      <point x="426" y="534" type="line"/>
      <point x="340" y="534" type="line"/>
    </contour>
  </outline>
</glyph>
<glyph name="j" format="1">
  <advance width="277"/>
  <unicode hex="006A"/>
  <outline>
    <contour>
      <point x="215" y="634" type="line"/>
      <point x="350" y="634" type="line"/>
      <point x="350" y="153" type="line" smooth="yes"/>
      <point x="350" y="56"/>
      <point x="265" y="1"/>
      <point x="188" y="1" type="curve" smooth="yes"/>
      <point x="121" y="1"/>
      <point x="91" y="16"/>
      <point x="41" y="63" type="curve"/>
      <point x="81" y="163" type="line"/>
      <point x="121" y="125"/>
      <point x="150" y="111"/>
      <point x="168" y="111" type="curve" smooth="yes"/>
      <point x="196" y="111"/>
      <point x="215" y="125"/>
      <point x="215" y="183" type="curve" smooth="yes"/>
    </contour>
    <contour>
      <point x="282" y="691" type="line"/>
      <point x="187" y="786" type="line"/>
      <point x="282" y="882" type="line"/>
      <point x="378" y="786" type="line"/>
    </contour>
  </outline>
</glyph>
<glyph name="t" format="1">
  <advance width="325"/>
  <unicode hex="0074"/>
  <outline>
    <contour>
      <point x="161" y="534" type="line"/>
      <point x="161" y="634" type="line"/>
      <point x="231" y="634" type="line"/>
      <point x="231" y="699" type="line"/>
      <point x="366" y="759" type="line"/>
      <point x="366" y="634" type="line"/>
      <point x="446" y="634" type="line"/>
      <point x="446" y="534" type="line"/>
      <point x="366" y="534" type="line"/>
      <point x="366" y="249" type="line"/>
      <point x="231" y="249" type="line"/>
      <point x="231" y="534" type="line"/>
    </contour>
  </outline>
</glyph>
<glyph name="quoteright" format="1">
  <advance width="220"/>
  <unicode hex="2019"/>
  <outline>
    <contour>
      <point x="186" y="489" type="line"/>
      <point x="186" y="749" type="line"/>
      <point x="316" y="749" type="line"/>
      <point x="316" y="609" type="line"/>
    </contour>
  </outline>
</glyph>
